<svg width="36" height="36" viewBox="0 0 36 36" fill="none" xmlns="http://www.w3.org/2000/svg">
<rect width="36" height="36" rx="10" fill="#45B9FB"/>
<path d="M28 17V19C28 22.7712 28 24.6569 26.8284 25.8284C25.8541 26.8028 24.3859 26.9668 21.75 26.9944V9.00559C24.3859 9.03321 25.8541 9.19724 26.8284 10.1716C28 11.3431 28 13.2288 28 17Z" fill="white"/>
<path fill-rule="evenodd" clip-rule="evenodd" d="M16 9H20H20.25L20.25 27H20H16C12.2288 27 10.3431 27 9.17157 25.8284C8 24.6569 8 22.7712 8 19V17C8 13.2288 8 11.3431 9.17157 10.1716C10.3431 9 12.2288 9 16 9ZM10.75 16C10.75 15.5858 11.0858 15.25 11.5 15.25H17.5C17.9142 15.25 18.25 15.5858 18.25 16C18.25 16.4142 17.9142 16.75 17.5 16.75H11.5C11.0858 16.75 10.75 16.4142 10.75 16ZM11.75 20C11.75 19.5858 12.0858 19.25 12.5 19.25H16.5C16.9142 19.25 17.25 19.5858 17.25 20C17.25 20.4142 16.9142 20.75 16.5 20.75H12.5C12.0858 20.75 11.75 20.4142 11.75 20Z" fill="white"/>
</svg>
