<svg width="38" height="38" viewBox="0 0 38 38" fill="none" xmlns="http://www.w3.org/2000/svg">
<rect width="38" height="38" rx="12" fill="#08875D"/>
<g clip-path="url(#clip0_498_106647)">
<path d="M19 10.6667C23.6025 10.6667 27.3333 14.3976 27.3333 19.0001C27.3333 23.6026 23.6025 27.3334 19 27.3334H12.3333C11.8913 27.3334 11.4673 27.1578 11.1548 26.8453C10.8422 26.5327 10.6666 26.1088 10.6666 25.6667V19.0001C10.6666 14.3976 14.3975 10.6667 19 10.6667ZM19 20.6667H16.5C16.2789 20.6667 16.067 20.7545 15.9107 20.9108C15.7544 21.0671 15.6666 21.2791 15.6666 21.5001C15.6666 21.7211 15.7544 21.9331 15.9107 22.0893C16.067 22.2456 16.2789 22.3334 16.5 22.3334H19C19.221 22.3334 19.4329 22.2456 19.5892 22.0893C19.7455 21.9331 19.8333 21.7211 19.8333 21.5001C19.8333 21.2791 19.7455 21.0671 19.5892 20.9108C19.4329 20.7545 19.221 20.6667 19 20.6667ZM21.5 17.3334H16.5C16.2876 17.3337 16.0833 17.415 15.9288 17.5608C15.7744 17.7066 15.6814 17.9059 15.669 18.1179C15.6565 18.3299 15.7255 18.5387 15.8618 18.7016C15.9982 18.8645 16.1915 18.9692 16.4025 18.9942L16.5 19.0001H21.5C21.7124 18.9998 21.9167 18.9185 22.0711 18.7727C22.2255 18.6269 22.3185 18.4276 22.3309 18.2156C22.3434 18.0036 22.2744 17.7948 22.1381 17.6319C22.0017 17.469 21.8084 17.3643 21.5975 17.3392L21.5 17.3334Z" fill="white"/>
</g>
<defs>
<clipPath id="clip0_498_106647">
<rect width="20" height="20" fill="white" transform="translate(9 9)"/>
</clipPath>
</defs>
</svg>
