<svg width="32" height="32" viewBox="0 0 32 32" fill="none" xmlns="http://www.w3.org/2000/svg">
<rect width="32" height="32" rx="10" fill="#0BD3BB"/>
<path fill-rule="evenodd" clip-rule="evenodd" d="M21.8333 10.1578V11.0003C22.2754 11.0003 22.6993 11.1759 23.0118 11.4884C23.3244 11.801 23.5 12.2249 23.5 12.6669V21.0003C23.5 21.4423 23.3244 21.8662 23.0118 22.1788C22.6993 22.4913 22.2754 22.6669 21.8333 22.6669H10.1667C9.72464 22.6669 9.30072 22.4913 8.98816 22.1788C8.67559 21.8662 8.5 21.4423 8.5 21.0003V12.6669C8.5 11.7961 9.19583 11.0061 10.0108 10.7736L19.1775 8.15442C19.4876 8.0658 19.814 8.05038 20.131 8.10936C20.4481 8.16835 20.7471 8.30013 21.0046 8.49434C21.262 8.68854 21.4709 8.93987 21.6147 9.22852C21.7585 9.51717 21.8334 9.83527 21.8333 10.1578ZM18.9167 15.5836C18.5851 15.5836 18.2672 15.7153 18.0328 15.9497C17.7984 16.1841 17.6667 16.5021 17.6667 16.8336C17.6667 17.1651 17.7984 17.4831 18.0328 17.7175C18.2672 17.9519 18.5851 18.0836 18.9167 18.0836C19.2482 18.0836 19.5661 17.9519 19.8005 17.7175C20.035 17.4831 20.1667 17.1651 20.1667 16.8336C20.1667 16.5021 20.035 16.1841 19.8005 15.9497C19.5661 15.7153 19.2482 15.5836 18.9167 15.5836ZM20.1667 10.1578C20.1667 10.0989 20.1543 10.0408 20.1302 9.98709C20.1062 9.93341 20.0711 9.88542 20.0271 9.8463C19.9832 9.80718 19.9315 9.7778 19.8754 9.7601C19.8193 9.74239 19.7601 9.73677 19.7017 9.74359L19.635 9.75692L15.2833 11.0003H20.1667V10.1578Z" fill="white"/>
</svg>
