<svg width="38" height="38" viewBox="0 0 38 38" fill="none" xmlns="http://www.w3.org/2000/svg">
<rect width="38" height="38" rx="12" fill="#E5730B"/>
<path d="M26.5 22.4525V23.5833C26.5 24.2617 26.1825 24.8417 25.7417 25.2975C25.3058 25.7492 24.7142 26.1175 24.0483 26.4092C22.7133 26.9925 20.9283 27.3333 19 27.3333C17.0717 27.3333 15.2867 26.9933 13.9517 26.4092C13.2858 26.1175 12.6942 25.7492 12.2583 25.2975C11.8542 24.8808 11.5542 24.3575 11.5067 23.7508L11.5 23.5833V22.4525C11.8875 22.6725 12.3017 22.8675 12.745 23.0317C14.4367 23.6575 16.6492 24.0067 19 24.0067C21.3508 24.0067 23.5633 23.6575 25.255 23.0317C25.5875 22.9083 25.9033 22.7683 26.2042 22.6125L26.5 22.4525ZM11.5 17.8692C11.8875 18.0892 12.3017 18.2842 12.745 18.4483C14.4367 19.0742 16.6492 19.4233 19 19.4233C21.3508 19.4233 23.5633 19.0742 25.255 18.4483C25.6983 18.2842 26.1125 18.09 26.5 17.8692V20.4567C25.9466 20.8838 25.3319 21.2249 24.6767 21.4683C23.2142 22.01 21.2067 22.3408 19 22.3408C16.7942 22.3408 14.7867 22.01 13.3233 21.4683C12.6681 21.2249 12.0534 20.8838 11.5 20.4567V17.8692ZM19 11.5C20.9283 11.5 22.7133 11.84 24.0483 12.4242C24.7142 12.7158 25.3058 13.0842 25.7417 13.5358C26.1458 13.9525 26.4458 14.4758 26.4933 15.0825L26.5 15.25V15.8733C25.9467 16.3005 25.3319 16.6416 24.6767 16.885C23.2142 17.4267 21.2067 17.7575 19 17.7575C16.7942 17.7575 14.7867 17.4267 13.3233 16.885C12.7408 16.6692 12.215 16.385 11.7358 16.0467L11.5 15.8733V15.25C11.5 14.5717 11.8175 13.9917 12.2583 13.5358C12.6942 13.0842 13.2858 12.7158 13.9517 12.4242C15.2867 11.8408 17.0717 11.5 19 11.5Z" fill="white"/>
</svg>
