<svg width="37" height="33" viewBox="0 0 37 33" fill="none" xmlns="http://www.w3.org/2000/svg">
<path d="M36.7789 9.31738L34.6789 24.3324C34.2239 27.4824 32.4914 29.1449 29.6389 29.1449C29.4114 29.1449 29.1839 29.1274 28.9389 29.1099C28.9895 28.7681 29.0129 28.4229 29.0089 28.0774V12.9049C29.0977 12.2713 29.0379 11.6257 28.8342 11.0193C28.6305 10.4128 28.2885 9.86199 27.8352 9.41045C27.382 8.95891 26.8299 8.61899 26.2227 8.41756C25.6154 8.21614 24.9697 8.15873 24.3364 8.24988H6.88892C6.88892 8.21488 6.90642 8.16238 6.90642 8.12738L7.32642 5.18738C7.38134 4.43839 7.58442 3.70776 7.92388 3.03786C8.26334 2.36795 8.73242 1.77211 9.30392 1.28488C9.93071 0.87189 10.6328 0.58665 11.3701 0.44551C12.1073 0.304369 12.8652 0.310102 13.6002 0.462381L32.0802 3.05238C32.8273 3.11225 33.5552 3.31934 34.222 3.66173C34.8888 4.00413 35.4812 4.47505 35.9652 5.04738C36.3833 5.66672 36.6711 6.36466 36.811 7.09873C36.9509 7.8328 36.94 8.58766 36.7789 9.31738Z" fill="#2F6FED"/>
<path d="M1.00006 28.0827V12.9137C0.909971 12.28 0.968623 11.634 1.17137 11.0268C1.37412 10.4196 1.71541 9.86798 2.16821 9.41551C2.62102 8.96305 3.17292 8.62218 3.78024 8.41988C4.38755 8.21759 5.03362 8.15942 5.66731 8.24998H24.3363C24.9697 8.1604 25.6152 8.21928 26.2218 8.42198C26.8285 8.62467 27.3798 8.96564 27.8321 9.41794C28.2844 9.87024 28.6254 10.4215 28.8281 11.0282C29.0308 11.6349 29.0896 12.2804 29.0001 12.9137V28.0827C29.0902 28.7164 29.0318 29.3623 28.8294 29.9694C28.627 30.5765 28.2861 31.1283 27.8337 31.581C27.3813 32.0337 26.8298 32.375 26.2228 32.5779C25.6159 32.7808 24.97 32.8397 24.3363 32.75H5.66731C5.03329 32.8407 4.38686 32.7825 3.77924 32.58C3.17161 32.3775 2.61949 32.0363 2.16661 31.5834C1.71373 31.1306 1.37253 30.5784 1.17005 29.9708C0.967568 29.3632 0.909367 28.7168 1.00006 28.0827Z" fill="#2F6FED" fill-opacity="0.251"/>
<path d="M19.375 19.1875H16.3125V16.125C16.3125 15.7769 16.1742 15.4431 15.9281 15.1969C15.6819 14.9508 15.3481 14.8125 15 14.8125C14.6519 14.8125 14.3181 14.9508 14.0719 15.1969C13.8258 15.4431 13.6875 15.7769 13.6875 16.125V19.1875H10.625C10.2769 19.1875 9.94306 19.3258 9.69692 19.5719C9.45078 19.8181 9.3125 20.1519 9.3125 20.5C9.3125 20.8481 9.45078 21.1819 9.69692 21.4281C9.94306 21.6742 10.2769 21.8125 10.625 21.8125H13.6875V24.875C13.6875 25.2231 13.8258 25.5569 14.0719 25.8031C14.3181 26.0492 14.6519 26.1875 15 26.1875C15.3481 26.1875 15.6819 26.0492 15.9281 25.8031C16.1742 25.5569 16.3125 25.2231 16.3125 24.875V21.8125H19.375C19.7231 21.8125 20.0569 21.6742 20.3031 21.4281C20.5492 21.1819 20.6875 20.8481 20.6875 20.5C20.6875 20.1519 20.5492 19.8181 20.3031 19.5719C20.0569 19.3258 19.7231 19.1875 19.375 19.1875Z" fill="#2F6FED"/>
</svg>
