<svg width="28" height="29" viewBox="0 0 28 29" fill="none" xmlns="http://www.w3.org/2000/svg">
<path d="M14 4C14.2973 4.00033 14.5833 4.11419 14.7996 4.31832C15.0158 4.52245 15.1459 4.80145 15.1633 5.09829C15.1808 5.39514 15.0842 5.68744 14.8933 5.91547C14.7025 6.1435 14.4317 6.29005 14.1365 6.32517L14 6.33333H8.16663C7.88087 6.33337 7.60507 6.43828 7.39153 6.62817C7.17798 6.81805 7.04156 7.07971 7.00813 7.3635L6.99996 7.5V21.5C7 21.7858 7.10491 22.0616 7.29479 22.2751C7.48468 22.4886 7.74633 22.6251 8.03013 22.6585L8.16663 22.6667H13.4166C13.714 22.667 14 22.7809 14.2162 22.985C14.4324 23.1891 14.5626 23.4681 14.58 23.765C14.5974 24.0618 14.5008 24.3541 14.31 24.5821C14.1191 24.8102 13.8484 24.9567 13.5531 24.9918L13.4166 25H8.16663C7.27388 25 6.41486 24.659 5.76532 24.0465C5.11578 23.434 4.72483 22.5965 4.67246 21.7053L4.66663 21.5V7.5C4.66658 6.60725 5.00767 5.74823 5.62012 5.0987C6.23258 4.44916 7.07008 4.05821 7.96129 4.00583L8.16663 4H14ZM20.6581 10.3747L23.9575 13.6752C24.1762 13.8939 24.299 14.1906 24.299 14.5C24.299 14.8094 24.1762 15.1061 23.9575 15.3248L20.6581 18.6253C20.4392 18.8441 20.1424 18.9669 19.8329 18.9668C19.5234 18.9667 19.2266 18.8437 19.0079 18.6247C18.7891 18.4058 18.6663 18.109 18.6664 17.7995C18.6665 17.49 18.7895 17.1933 19.0085 16.9745L20.3163 15.6667H14C13.6905 15.6667 13.3938 15.5437 13.175 15.325C12.9562 15.1062 12.8333 14.8094 12.8333 14.5C12.8333 14.1906 12.9562 13.8938 13.175 13.675C13.3938 13.4562 13.6905 13.3333 14 13.3333H20.3163L19.0085 12.0255C18.7895 11.8067 18.6665 11.51 18.6664 11.2005C18.6663 10.891 18.7891 10.5942 19.0079 10.3753C19.2266 10.1563 19.5234 10.0333 19.8329 10.0332C20.1424 10.0331 20.4392 10.1559 20.6581 10.3747Z" fill="white"/>
</svg>
