<svg width="38" height="38" viewBox="0 0 38 38" fill="none" xmlns="http://www.w3.org/2000/svg">
<rect width="38" height="38" rx="12" fill="#2F6FED"/>
<g clip-path="url(#clip0_498_106653)">
<path d="M24.8916 19.0084C25.0001 19.0237 25.1045 19.0603 25.1989 19.116C25.2932 19.1718 25.3756 19.2456 25.4414 19.3332C25.5072 19.4208 25.5551 19.5205 25.5823 19.6267C25.6095 19.7328 25.6155 19.8433 25.5999 19.9517C25.3911 21.3968 24.7138 22.7333 23.6721 23.7564C22.6304 24.7794 21.2818 25.4324 19.8333 25.6151V26.5001C19.8333 26.7211 19.7455 26.9331 19.5892 27.0893C19.4329 27.2456 19.221 27.3334 18.9999 27.3334C18.7789 27.3334 18.567 27.2456 18.4107 27.0893C18.2544 26.9331 18.1666 26.7211 18.1666 26.5001V25.6151C16.7183 25.4321 15.3699 24.779 14.3284 23.756C13.2869 22.733 12.6097 21.3966 12.4008 19.9517C12.3694 19.7329 12.4262 19.5106 12.5587 19.3337C12.6913 19.1568 12.8886 19.0398 13.1074 19.0084C13.3263 18.977 13.5486 19.0339 13.7255 19.1664C13.9024 19.2989 14.0194 19.4963 14.0508 19.7151C14.2231 20.9047 14.8182 21.9925 15.7271 22.7792C16.636 23.5659 17.7979 23.9989 18.9999 23.9989C20.202 23.9989 21.3639 23.5659 22.2728 22.7792C23.1817 21.9925 23.7768 20.9047 23.9491 19.7151C23.9646 19.6067 24.0014 19.5025 24.0572 19.4084C24.113 19.3142 24.1868 19.232 24.2744 19.1663C24.362 19.1007 24.4617 19.053 24.5677 19.0259C24.6738 18.9988 24.7833 18.9929 24.8916 19.0084ZM18.9999 10.6667C20.105 10.6667 21.1648 11.1057 21.9462 11.8871C22.7276 12.6685 23.1666 13.7283 23.1666 14.8334V19.0001C23.1666 20.1052 22.7276 21.165 21.9462 21.9464C21.1648 22.7278 20.105 23.1667 18.9999 23.1667C17.8949 23.1667 16.8351 22.7278 16.0537 21.9464C15.2723 21.165 14.8333 20.1052 14.8333 19.0001V14.8334C14.8333 13.7283 15.2723 12.6685 16.0537 11.8871C16.8351 11.1057 17.8949 10.6667 18.9999 10.6667Z" fill="white"/>
</g>
<defs>
<clipPath id="clip0_498_106653">
<rect width="20" height="20" fill="white" transform="translate(9 9)"/>
</clipPath>
</defs>
</svg>
