<svg width="32" height="32" viewBox="0 0 32 32" fill="none" xmlns="http://www.w3.org/2000/svg">
<rect width="32" height="32" rx="10" fill="#FBAF45"/>
<g clip-path="url(#clip0_1085_138633)">
<path fill-rule="evenodd" clip-rule="evenodd" d="M19.3333 8.5C19.5543 8.5 19.7663 8.5878 19.9226 8.74408C20.0789 8.90036 20.1667 9.11232 20.1667 9.33333V10.1667H21.8333C22.2754 10.1667 22.6993 10.3423 23.0118 10.6548C23.3244 10.9674 23.5 11.3913 23.5 11.8333V16.44C22.5474 15.5885 21.305 15.134 20.0279 15.1697C18.7507 15.2054 17.5357 15.7288 16.6322 16.6322C15.7288 17.5357 15.2054 18.7507 15.1697 20.0279C15.134 21.305 15.5885 22.5474 16.44 23.5H10.1667C9.72464 23.5 9.30072 23.3244 8.98816 23.0118C8.67559 22.6993 8.5 22.2754 8.5 21.8333V11.8333C8.5 11.3913 8.67559 10.9674 8.98816 10.6548C9.30072 10.3423 9.72464 10.1667 10.1667 10.1667H11.8333V9.33333C11.8333 9.11232 11.9211 8.90036 12.0774 8.74408C12.2337 8.5878 12.4457 8.5 12.6667 8.5C12.8877 8.5 13.0996 8.5878 13.2559 8.74408C13.4122 8.90036 13.5 9.11232 13.5 9.33333V10.1667H18.5V9.33333C18.5 9.11232 18.5878 8.90036 18.7441 8.74408C18.9004 8.5878 19.1123 8.5 19.3333 8.5ZM20.1667 16.8333C21.0507 16.8333 21.8986 17.1845 22.5237 17.8096C23.1488 18.4348 23.5 19.2826 23.5 20.1667C23.5 21.0507 23.1488 21.8986 22.5237 22.5237C21.8986 23.1488 21.0507 23.5 20.1667 23.5C19.2826 23.5 18.4348 23.1488 17.8096 22.5237C17.1845 21.8986 16.8333 21.0507 16.8333 20.1667C16.8333 19.2826 17.1845 18.4348 17.8096 17.8096C18.4348 17.1845 19.2826 16.8333 20.1667 16.8333ZM20.1667 18.0833C19.9626 18.0834 19.7656 18.1583 19.613 18.2939C19.4605 18.4296 19.363 18.6165 19.3392 18.8192L19.3333 18.9167V20.1667C19.3334 20.3708 19.4083 20.5678 19.5439 20.7203C19.6796 20.8728 19.8665 20.9703 20.0692 20.9942L20.1667 21H21C21.2124 20.9998 21.4167 20.9184 21.5711 20.7726C21.7256 20.6268 21.8185 20.4275 21.831 20.2155C21.8434 20.0035 21.7744 19.7947 21.6381 19.6318C21.5018 19.4689 21.3084 19.3643 21.0975 19.3392L21 19.3333V18.9167C21 18.6957 20.9122 18.4837 20.7559 18.3274C20.5996 18.1711 20.3877 18.0833 20.1667 18.0833ZM13.0833 17.6667H12.6667C12.4457 17.6667 12.2337 17.7545 12.0774 17.9107C11.9211 18.067 11.8333 18.279 11.8333 18.5C11.8333 18.721 11.9211 18.933 12.0774 19.0893C12.2337 19.2455 12.4457 19.3333 12.6667 19.3333H13.0833C13.3043 19.3333 13.5163 19.2455 13.6726 19.0893C13.8289 18.933 13.9167 18.721 13.9167 18.5C13.9167 18.279 13.8289 18.067 13.6726 17.9107C13.5163 17.7545 13.3043 17.6667 13.0833 17.6667ZM15.1667 14.3333H12.6667C12.4543 14.3336 12.25 14.4149 12.0955 14.5607C11.9411 14.7065 11.8481 14.9058 11.8357 15.1178C11.8232 15.3299 11.8922 15.5386 12.0286 15.7015C12.1649 15.8644 12.3583 15.9691 12.5692 15.9942L12.6667 16H15.1667C15.3791 15.9998 15.5834 15.9184 15.7378 15.7726C15.8923 15.6268 15.9852 15.4275 15.9976 15.2155C16.0101 15.0035 15.9411 14.7947 15.8048 14.6318C15.6685 14.4689 15.4751 14.3643 15.2642 14.3392L15.1667 14.3333Z" fill="white"/>
</g>
<defs>
<clipPath id="clip0_1085_138633">
<rect width="20" height="20" fill="white" transform="translate(6 6)"/>
</clipPath>
</defs>
</svg>
