<svg width="32" height="32" viewBox="0 0 32 32" fill="none" xmlns="http://www.w3.org/2000/svg">
<rect width="32" height="32" rx="10" fill="#D77228"/>
<g clip-path="url(#clip0_498_64654)">
<path fill-rule="evenodd" clip-rule="evenodd" d="M15.1667 7.6665C14.0616 7.6665 13.0018 8.10549 12.2204 8.88689C11.439 9.66829 11 10.7281 11 11.8332C11 12.9382 11.439 13.998 12.2204 14.7794C13.0018 15.5609 14.0616 15.9998 15.1667 15.9998C16.2718 15.9998 17.3316 15.5609 18.113 14.7794C18.8944 13.998 19.3334 12.9382 19.3334 11.8332C19.3334 10.7281 18.8944 9.66829 18.113 8.88689C17.3316 8.10549 16.2718 7.6665 15.1667 7.6665ZM15.1667 16.8332C13.1709 16.8332 11.3542 17.4115 10.0184 18.2265C9.35169 18.6332 8.78169 19.1132 8.37002 19.6348C7.96502 20.1465 7.66669 20.7607 7.66669 21.4165C7.66669 22.1207 8.00919 22.6757 8.50252 23.0715C8.96919 23.4465 9.58502 23.6948 10.2392 23.8682C11.5542 24.2157 13.3092 24.3332 15.1667 24.3332C15.3584 24.3332 15.55 24.3315 15.7375 24.329C15.8771 24.3271 16.0139 24.2901 16.1355 24.2216C16.2571 24.153 16.3595 24.055 16.4333 23.9365C16.5071 23.8181 16.55 23.683 16.558 23.5436C16.5661 23.4043 16.5389 23.2651 16.4792 23.139C16.1625 22.4704 15.9988 21.7396 16 20.9998C16 19.9565 16.3192 18.9898 16.8642 18.189C16.9452 18.07 16.994 17.932 17.0058 17.7886C17.0176 17.6451 16.9921 17.501 16.9317 17.3703C16.8713 17.2396 16.778 17.1269 16.661 17.0429C16.5441 16.959 16.4073 16.9069 16.2642 16.8915C15.9059 16.8532 15.5392 16.8332 15.1667 16.8332ZM21.72 17.664C21.6467 17.5381 21.5416 17.4337 21.4152 17.3611C21.2889 17.2885 21.1457 17.2502 21 17.2502C20.8543 17.2502 20.7111 17.2885 20.5848 17.3611C20.4585 17.4337 20.3534 17.5381 20.28 17.664L19.5217 18.9657L18.05 19.284C17.9075 19.3148 17.7756 19.3825 17.6675 19.4802C17.5593 19.578 17.4787 19.7024 17.4336 19.8411C17.3886 19.9797 17.3807 20.1278 17.4108 20.2704C17.4409 20.4131 17.5078 20.5453 17.605 20.654L18.6084 21.7773L18.4567 23.2757C18.442 23.4207 18.4656 23.567 18.5251 23.7C18.5846 23.833 18.678 23.9481 18.7959 24.0338C18.9138 24.1195 19.0521 24.1728 19.197 24.1883C19.3419 24.2038 19.4883 24.1811 19.6217 24.1223L21 23.514L22.3784 24.1223C22.5117 24.1811 22.6582 24.2038 22.8031 24.1883C22.948 24.1728 23.0863 24.1195 23.2042 24.0338C23.3221 23.9481 23.4154 23.833 23.4749 23.7C23.5345 23.567 23.558 23.4207 23.5434 23.2757L23.3917 21.7765L24.395 20.654C24.4922 20.5453 24.5592 20.4131 24.5893 20.2704C24.6193 20.1278 24.6115 19.9797 24.5664 19.8411C24.5214 19.7024 24.4407 19.578 24.3326 19.4802C24.2244 19.3825 24.0925 19.3148 23.95 19.284L22.4784 18.9657L21.72 17.664Z" fill="white"/>
</g>
<defs>
<clipPath id="clip0_498_64654">
<rect width="20" height="20" fill="white" transform="translate(6 6)"/>
</clipPath>
</defs>
</svg>
